<svg xmlns="http://www.w3.org/2000/svg" width="64" height="64" viewBox="0 0 64 64">
  <!-- Transparent background, gear + ingot icon -->
  <defs>
    <linearGradient id="metalGrad" x1="0" x2="1" y1="0" y2="1">
      <stop offset="0%" stop-color="#E6EEF3" />
      <stop offset="100%" stop-color="#9AA7B4" />
    </linearGradient>
    <linearGradient id="darkGrad" x1="0" x2="1" y1="0" y2="1">
      <stop offset="0%" stop-color="#8b9aa6" />
      <stop offset="100%" stop-color="#54606a" />
    </linearGradient>
  </defs>

  <!-- Gear (manufacturing) -->
  <g transform="translate(6,6) scale(0.9)">
    <path d="M24 4 L28 4 L30 8 L34 10 L36 14 L40 16 L40 20 L38 24 L40 28 L40 32 L36 34 L34 38 L30 40 L28 44 L24 44 L20 44 L16 44 L14 40 L10 38 L8 34 L4 32 L4 28 L6 24 L4 20 L4 16 L8 14 L10 10 L14 8 L16 4 Z" fill="none" stroke="#738291" stroke-width="2" stroke-linejoin="round" opacity="0.95"/>
    <circle cx="24" cy="24" r="10" fill="url(#metalGrad)" stroke="#6b7781" stroke-width="1"/>
  </g>

  <!-- Ingot overlay -->
  <g transform="translate(18,18)">
    <path d="M4 18 L20 6 L44 18 L44 30 L4 30 Z" fill="url(#darkGrad)" stroke="#55606A" stroke-width="1"/>
    <rect x="8" y="20" width="32" height="6" rx="2" fill="#cfd8de" opacity="0.9"/>
  </g>
</svg>
